# xmcd
#
# Track frame offsets: 
#        150
#        17877
#        35445
#        61035
#        78472
#        101487
#        118885
#        136045
#        153725
#        177052
#        196760
#
# Disc length: 2901 seconds
#
# Revision: 2
# Processed by: cddbd v1.5.2PL0 Copyright (c) Steve Scherf et al.
# Submitted via: ExactAudioCopy v0.95b4
#
DISCID=860b530b
DTITLE=Charlie Robison - Good Times
DYEAR=2004
DGENRE=Country
TTITLE0=Good Times
TTITLE1=New Year's Day
TTITLE2=El Cerrito Place
TTITLE3=Big City Blues
TTITLE4=The Bottom
TTITLE5=Love Means Never Having To Say You're Hungry
TTITLE6=Photograph
TTITLE7=Something In The Water
TTITLE8=Always
TTITLE9=Flatland Boogie
TTITLE10=Magnolia
EXTD=
EXTT0=
EXTT1=
EXTT2=
EXTT3=
EXTT4=
EXTT5=
EXTT6=
EXTT7=
EXTT8=
EXTT9=
EXTT10=
PLAYORDER=
